# xmcd CD database file
#
# Track frame offsets:
#	150
#	16788
#	34900
#	48934
#	63981
#	74625
#	89439
#	103566
#	115729
#	131473
#	148053
#	163938
#
# Disc length: 2376 seconds
#
# Revision: 0
# Processed by: cddbd v1.5.2PL0 Copyright (c) Steve Scherf et al.
# Submitted via: CDex 1.70beta2
#
DISCID=a609460c
DTITLE=Varrin, Mervin - Cdn. - OVM - ON - Madawaska Valley
DYEAR=1900
DGENRE=Country
TTITLE0=Ramblin Letters
TTITLE1=Madawaska Valley
TTITLE2=Various Artist - The Window Up Above
TTITLE3=Wild Mountain Flowers
TTITLE4=One Woman Man
TTITLE5=Blue Ribbon Beer
TTITLE6=Smoke Goes Up
TTITLE7=Sorry For You My Friend
TTITLE8=Thirty Days In Twenty Years
TTITLE9=Log Drivers Song
TTITLE10=Ole Side Of Town
TTITLE11=A Single Mapleleaf
EXTD=
EXTT0=
EXTT1=
EXTT2=
EXTT3=
EXTT4=
EXTT5=
EXTT6=
EXTT7=
EXTT8=
EXTT9=
EXTT10=
EXTT11=
PLAYORDER=
